<svg width="48" height="48" viewBox="0 0 48 48" fill="none" xmlns="http://www.w3.org/2000/svg">
<g filter="url(#filter0_d_93_722)">
<circle cx="24" cy="20" r="20" fill="#F9F9F9"/>
<path d="M26.8577 12.3522C27.0832 12.5778 27.2099 12.8837 27.2099 13.2026C27.2099 13.5216 27.0832 13.8275 26.8577 14.053L20.9035 20.0073L26.8577 25.9615C27.0768 26.1883 27.198 26.4922 27.1953 26.8076C27.1926 27.123 27.0661 27.4247 26.843 27.6477C26.62 27.8707 26.3183 27.9972 26.0029 28C25.6875 28.0027 25.3837 27.8815 25.1568 27.6623L18.3522 20.8577C18.1267 20.6321 18 20.3262 18 20.0073C18 19.6883 18.1267 19.3824 18.3522 19.1568L25.1568 12.3522C25.3824 12.1267 25.6883 12 26.0073 12C26.3262 12 26.6321 12.1267 26.8577 12.3522Z" fill="#2E2E2E"/>
</g>
<defs>
<filter id="filter0_d_93_722" x="0" y="0" width="48" height="48" filterUnits="userSpaceOnUse" color-interpolation-filters="sRGB">
<feFlood flood-opacity="0" result="BackgroundImageFix"/>
<feColorMatrix in="SourceAlpha" type="matrix" values="0 0 0 0 0 0 0 0 0 0 0 0 0 0 0 0 0 0 127 0" result="hardAlpha"/>
<feOffset dy="4"/>
<feGaussianBlur stdDeviation="2"/>
<feComposite in2="hardAlpha" operator="out"/>
<feColorMatrix type="matrix" values="0 0 0 0 0 0 0 0 0 0 0 0 0 0 0 0 0 0 0.25 0"/>
<feBlend mode="normal" in2="BackgroundImageFix" result="effect1_dropShadow_93_722"/>
<feBlend mode="normal" in="SourceGraphic" in2="effect1_dropShadow_93_722" result="shape"/>
</filter>
</defs>
</svg>
